<svg width="30" height="30" viewBox="0 0 30 30" fill="none" xmlns="http://www.w3.org/2000/svg">
<path fill-rule="evenodd" clip-rule="evenodd" d="M22 11.4062C22 17.4823 17.075 22.4062 11 22.4062C4.925 22.4062 0 17.4823 0 11.4062C0 5.33125 4.925 0.40625 11 0.40625C17.075 0.40625 22 5.33125 22 11.4062Z" fill="#9EF5E0"/>
<path fill-rule="evenodd" clip-rule="evenodd" d="M18.6148 7.54542L9.10977 17.3284L3.38477 11.4354L5.38877 9.37242L9.10977 13.2034L16.6108 5.48242L18.6148 7.54542Z" fill="#006689"/>
<mask id="mask0" mask-type="alpha" maskUnits="userSpaceOnUse" x="9" y="9" width="21" height="21">
<path d="M9.84424 9.35547H29.9997V29.5942H9.84424V9.35547Z" fill="white"/>
</mask>
<g mask="url(#mask0)">
<path fill-rule="evenodd" clip-rule="evenodd" d="M12.0592 24.0332L9.84424 29.5942L15.3812 27.3702L12.0592 24.0332ZM12.0592 24.0332L9.84424 29.5942L15.3812 27.3702L12.0592 24.0332Z" fill="#C4C4C4"/>
<path fill-rule="evenodd" clip-rule="evenodd" d="M29.6682 11.3582L28.0072 9.68922C27.5632 9.24422 26.7882 9.24422 26.3462 9.68922L24.2412 11.8032L25.7922 13.3592L27.5632 15.1382L29.6682 13.0262C30.1102 12.5812 30.1102 11.8032 29.6682 11.3582Z" fill="#C4C4C4"/>
<path fill-rule="evenodd" clip-rule="evenodd" d="M24.2211 11.8613L12.0801 24.0473L15.3691 27.3503L27.5091 15.1643L24.2211 11.8613Z" fill="#006689"/>
<path fill-rule="evenodd" clip-rule="evenodd" d="M10.6192 27.4805L9.84424 29.5935L11.8372 28.7035L10.6192 27.4805Z" fill="#006689"/>
</g>
</svg>
