<svg width="37" height="29" viewBox="0 0 37 29" fill="none" xmlns="http://www.w3.org/2000/svg">
<g clip-path="url(#clip0)">
<path d="M13.5879 3.06608L16.4586 0L19.3293 3.06608H13.5879ZM16.4586 0.76652L14.8 2.55507H18.1172L16.4586 0.76652Z" fill="#006689"/>
<path d="M33.3 2.10791H0V25.4229H33.3V2.10791Z" fill="#006689"/>
<path d="M30.7481 4.27979H2.48779V23.1234H30.7481V4.27979Z" fill="#EEEEEE"/>
<path d="M10.8447 16.1608C10.8447 16.1608 17.6068 9.90089 30.7482 10.4758V23.1872H17.9896L11.8016 16.9912L10.8447 16.1608Z" fill="#006689"/>
<path d="M2.48779 15.2028C2.48779 15.2028 16.8412 13.6698 22.5826 23.1874H2.48779V15.2028Z" fill="#9EF5E0"/>
<path d="M7.39975 11.3698C8.63287 11.3698 9.63251 10.3689 9.63251 9.13412C9.63251 7.89939 8.63287 6.89844 7.39975 6.89844C6.16663 6.89844 5.16699 7.89939 5.16699 9.13412C5.16699 10.3689 6.16663 11.3698 7.39975 11.3698Z" fill="#9EF5E0"/>
<path d="M26.9208 28.2972C27.6863 27.5306 27.8777 26.3809 27.4311 25.4227L33.4277 19.4183C34.3846 19.8654 35.5328 19.6738 36.2984 18.9073C37.0639 18.1408 37.2553 16.991 36.8087 16.0328C36.6173 16.2245 35.1501 17.6936 35.1501 17.6936L34.5759 17.1188L34.0018 16.5439C34.1932 16.3522 35.6604 14.8831 35.6604 14.8831C34.7035 14.4359 33.5553 14.6276 32.7897 15.3941C32.0242 16.1606 31.8328 17.3104 32.2794 18.2685L26.2828 24.2729C25.3259 23.8258 24.1777 24.0174 23.4121 24.784C22.6466 25.5505 22.4552 26.7003 22.9018 27.6584L24.5604 25.9976L25.1346 26.5725L25.7087 27.1474C25.7087 27.1474 24.1777 28.6166 24.0501 28.8082C25.007 29.1914 26.1552 29.0637 26.9208 28.2972Z" fill="#9EF5E0"/>
</g>
<defs>
<clipPath id="clip0">
<rect width="37" height="29" fill="white"/>
</clipPath>
</defs>
</svg>
