<svg width="33" height="34" viewBox="0 0 33 34" fill="none" xmlns="http://www.w3.org/2000/svg">
<g clip-path="url(#clip0)">
<path d="M16.2721 5.88867C10.5411 5.88867 5.8335 10.381 5.8335 15.85V29.8154H26.7107V15.85C26.7107 10.381 22.0031 5.88867 16.2721 5.88867Z" fill="#9EF5E0"/>
<path d="M29.0643 29.3271H3.47949V33.6242H29.0643V29.3271Z" fill="#006689"/>
<path d="M15.0439 25.4214C15.0439 24.7378 15.5556 24.1518 16.272 24.1518C16.9884 24.1518 17.5001 24.6401 17.5001 25.4214C17.5001 26.105 16.9884 26.691 16.272 26.691C15.5556 26.691 15.0439 26.105 15.0439 25.4214ZM15.5556 22.5892L15.2486 13.0186H17.2954L16.9884 22.5892H15.5556Z" fill="#006689"/>
<path d="M3.27485 15.0693H0V16.5342H3.27485V15.0693Z" fill="#006689"/>
<path d="M32.3393 15.0693H29.0645V16.5342H32.3393V15.0693Z" fill="#006689"/>
<path d="M17.0908 0.224609H15.5557V3.34973H17.0908V0.224609Z" fill="#006689"/>
<path d="M27.3918 4.30585L25.0762 6.51562L26.1616 7.55146L28.4773 5.34168L27.3918 4.30585Z" fill="#006689"/>
<path d="M4.47853 4.57061L3.39307 5.60645L5.70872 7.81622L6.79418 6.78039L4.47853 4.57061Z" fill="#006689"/>
</g>
<defs>
<clipPath id="clip0">
<rect width="32.3392" height="33.3997" fill="white" transform="translate(0 0.224609)"/>
</clipPath>
</defs>
</svg>
