<svg width="35" height="35" viewBox="0 0 35 35" fill="none" xmlns="http://www.w3.org/2000/svg">
<path d="M10.5126 33.2681C12.3677 31.413 12.8624 28.5685 11.7493 26.2186L26.2193 11.7487C28.4454 12.8617 31.2899 12.4907 33.2687 10.5119C35.1239 8.6568 35.6186 5.81228 34.5055 3.58613C34.0108 3.95715 30.4242 7.6674 30.4242 7.6674L28.9401 6.1833L27.456 4.6992C27.827 4.32818 31.5373 0.617932 31.5373 0.617932C29.1875 -0.495143 26.3429 -0.000442956 24.6115 1.85468C22.7564 3.7098 22.3853 6.55433 23.3747 8.90415L8.7811 23.3741C6.43128 22.261 3.71043 22.6321 1.73163 24.6109C-0.12349 26.466 -0.618189 29.3105 0.494885 31.5367L4.57616 27.4554L6.18393 28.9395L7.66803 30.4236C7.66803 30.4236 3.95778 34.0102 3.58676 34.5049C5.81291 35.6179 8.65743 35.1232 10.5126 33.2681Z" fill="#006689"/>
</svg>
