<svg width="35" height="34" viewBox="0 0 35 34" fill="none" xmlns="http://www.w3.org/2000/svg">
<g clip-path="url(#clip0)">
<path d="M28.8163 0L14.47 14.3463C14.3463 14.3463 14.3463 14.2226 14.2226 14.2226C10.5124 12.4912 5.9364 13.2332 2.9682 16.2014C-0.989399 20.159 -0.989399 26.4664 2.9682 30.424C6.9258 34.3816 13.2332 34.3816 17.1908 30.424C20.159 27.4558 20.9011 23.0035 19.2933 19.2933L27.2085 11.2544L29.4346 10.8834L29.8057 8.65724L31.7845 8.53357L31.9081 6.55477L34.629 5.68905L34.8763 0.4947L28.8163 0ZM7.4205 28.4452C6.80212 29.0636 5.68905 29.0636 4.947 28.4452C4.32862 27.8269 4.32862 26.7138 4.947 25.9717C5.56537 25.3534 6.67845 25.3534 7.4205 25.9717C8.16254 26.7138 8.16254 27.8269 7.4205 28.4452Z" fill="#006689"/>
<path d="M33.145 0.247698L16.8199 16.5728L15.4595 15.2124L30.5478 0.124023L33.145 0.247698Z" fill="#EEEEEE"/>
</g>
<defs>
<clipPath id="clip0">
<rect width="35" height="33.3922" fill="white"/>
</clipPath>
</defs>
</svg>
