<svg width="35" height="33" viewBox="0 0 35 33" fill="none" xmlns="http://www.w3.org/2000/svg">
<path d="M29.5584 27.456C30.5478 31.7847 25.8482 32.6504 23.7457 32.1557C21.6432 31.5373 17.4383 31.5373 17.4383 31.5373C17.4383 31.5373 13.2333 31.661 11.1309 32.1557C9.02838 32.7741 4.45241 31.7847 5.31813 27.456C6.30753 23.1274 10.3888 23.3748 11.5019 17.562C12.615 11.7493 17.4383 12.1204 17.4383 12.1204C17.4383 12.1204 22.1379 11.7493 23.3747 17.562C24.4877 23.3748 28.6927 23.1274 29.5584 27.456ZM21.8906 11.7493C24.3641 12.4914 27.2086 10.5126 28.198 7.29703C29.0637 4.08148 27.827 0.865934 25.2298 0.247559C22.7563 -0.49449 19.9118 1.48431 18.9224 4.69986C18.0566 7.79173 19.2934 11.0073 21.8906 11.7493ZM32.2793 10.5126C29.8058 9.52318 26.8376 11.2546 25.6008 14.3465C24.3641 17.4384 25.3535 20.7776 27.7033 21.767C30.1768 22.7564 33.145 21.0249 34.3817 17.9331C35.7422 14.8412 34.7528 11.502 32.2793 10.5126ZM13.2333 11.7493C15.7068 11.0073 17.0672 7.79173 16.2015 4.69986C15.2121 1.48431 12.3676 -0.618165 9.8941 0.123884C7.4206 0.865934 6.06018 4.08148 6.9259 7.17335C7.9153 10.5126 10.6362 12.4914 13.2333 11.7493ZM7.29693 21.767C9.77043 20.7776 10.6362 17.4384 9.3994 14.3465C8.16265 11.2546 5.19446 9.52318 2.72096 10.5126C0.247459 11.502 -0.618265 14.8412 0.618484 17.9331C1.85523 21.0249 4.82343 22.7564 7.29693 21.767Z" fill="#006689"/>
</svg>
