<svg width="38" height="29" viewBox="0 0 38 29" fill="none" xmlns="http://www.w3.org/2000/svg">
<g clip-path="url(#clip0)">
<path d="M15.2 3.4L18.4 0L21.6 3.4H15.2ZM18.4 0.9L16.5 2.9H20.2L18.4 0.9Z" fill="#006689"/>
<path d="M37.2 2.2998H0V28.2998H37.2V2.2998Z" fill="#006689"/>
<path d="M34.4001 4.7998H2.80005V25.8998H34.4001V4.7998Z" fill="#EEEEEE"/>
<path d="M12.1001 17.9996C12.1001 17.9996 19.7001 10.9996 34.3001 11.6996V25.8996H20.0001L13.2001 18.9996L12.1001 17.9996Z" fill="#006689"/>
<path d="M2.80005 16.9001C2.80005 16.9001 18.9 15.2001 25.3 25.8001H2.80005V16.9001Z" fill="#9EF5E0"/>
<path d="M8.30005 12.7002C9.68076 12.7002 10.8 11.5809 10.8 10.2002C10.8 8.81948 9.68076 7.7002 8.30005 7.7002C6.91934 7.7002 5.80005 8.81948 5.80005 10.2002C5.80005 11.5809 6.91934 12.7002 8.30005 12.7002Z" fill="#9EF5E0"/>
</g>
<defs>
<clipPath id="clip0">
<rect width="37.2" height="28.3" fill="white"/>
</clipPath>
</defs>
</svg>
