<svg width="34" height="35" viewBox="0 0 34 35" fill="none" xmlns="http://www.w3.org/2000/svg">
<g clip-path="url(#clip0)">
<path d="M0 14.902C0 11.3725 6.47059 0 6.47059 0C6.47059 0 12.9412 11.3725 12.9412 14.902C12.9412 18.4314 10.098 21.3725 6.47059 21.3725C2.84314 21.3725 0 18.4314 0 14.902Z" fill="#9EF5E0"/>
<path d="M17.8434 18.0392C17.8434 18.0392 10.5885 25.098 16.863 31.7647C16.863 31.7647 24.0199 38.8235 31.1767 31.7647C39.0198 24.0196 25.4904 17.0588 26.961 9.50977C26.961 9.50977 20.1963 12.9411 21.3728 22.2549C21.1767 22.2549 17.7453 22.2549 17.8434 18.0392Z" fill="#006689"/>
<path d="M21.0786 27.1573C21.0786 27.1573 17.7452 30.4906 20.5884 33.5299C20.5884 33.5299 23.9217 36.8632 27.255 33.5299C30.8825 29.9024 24.608 26.6671 25.2943 23.1377C25.2943 23.1377 22.157 24.7063 22.6472 29.02C22.6472 29.1181 21.0786 29.1181 21.0786 27.1573Z" fill="white"/>
</g>
<defs>
<clipPath id="clip0">
<rect width="33.6274" height="35" fill="white"/>
</clipPath>
</defs>
</svg>
